# xmcd
#
# Track frame offsets:
#	150
#	20653
#	41332
#	54559
#	83815
#
# Disc length: 1414 seconds
#
# Revision: 1
# Processed by: cddbd v1.5.1PL2 Copyright (c) Steve Scherf et al.
# Submitted via: EasyCDDAExtractor 9.0.0.1
#
DISCID=35058405
DTITLE=Blue Oyster Cult - Palace Theatre Albany 20-09-76
DYEAR=1976
DGENRE=Hard Rock
TTITLE0=Cities On Flame
TTITLE1=Morning Final
TTITLE2=This Ain't The Summer Of Love
TTITLE3=Five Guitars
TTITLE4=(Don't Fear) The Reaper
EXTD=
EXTT0=
EXTT1=
EXTT2=
EXTT3=
EXTT4=
PLAYORDER=
